<svg xmlns="http://www.w3.org/2000/svg" viewBox="0 0 1200 1600" width="1200" height="1600" font-family="'Segoe UI', Arial, sans-serif">
  <defs>
    <linearGradient id="bgGrad" x1="0%" y1="0%" x2="100%" y2="100%">
      <stop offset="0%" style="stop-color:#0f172a;stop-opacity:1"/>
      <stop offset="100%" style="stop-color:#1e293b;stop-opacity:1"/>
    </linearGradient>
    <linearGradient id="startEnd" x1="0%" y1="0%" x2="100%" y2="0%">
      <stop offset="0%" style="stop-color:#6366f1"/>
      <stop offset="100%" style="stop-color:#8b5cf6"/>
    </linearGradient>
    <linearGradient id="processBlue" x1="0%" y1="0%" x2="100%" y2="0%">
      <stop offset="0%" style="stop-color:#0369a1"/>
      <stop offset="100%" style="stop-color:#0ea5e9"/>
    </linearGradient>
    <linearGradient id="processGreen" x1="0%" y1="0%" x2="100%" y2="0%">
      <stop offset="0%" style="stop-color:#065f46"/>
      <stop offset="100%" style="stop-color:#10b981"/>
    </linearGradient>
    <linearGradient id="processAmber" x1="0%" y1="0%" x2="100%" y2="0%">
      <stop offset="0%" style="stop-color:#92400e"/>
      <stop offset="100%" style="stop-color:#f59e0b"/>
    </linearGradient>
    <linearGradient id="processRed" x1="0%" y1="0%" x2="100%" y2="0%">
      <stop offset="0%" style="stop-color:#7f1d1d"/>
      <stop offset="100%" style="stop-color:#ef4444"/>
    </linearGradient>
    <linearGradient id="processPurple" x1="0%" y1="0%" x2="100%" y2="0%">
      <stop offset="0%" style="stop-color:#4c1d95"/>
      <stop offset="100%" style="stop-color:#8b5cf6"/>
    </linearGradient>
    <linearGradient id="processTeal" x1="0%" y1="0%" x2="100%" y2="0%">
      <stop offset="0%" style="stop-color:#134e4a"/>
      <stop offset="100%" style="stop-color:#14b8a6"/>
    </linearGradient>
    <linearGradient id="decisionGrad" x1="0%" y1="0%" x2="100%" y2="100%">
      <stop offset="0%" style="stop-color:#1d4ed8"/>
      <stop offset="100%" style="stop-color:#3b82f6"/>
    </linearGradient>
    <filter id="shadow" x="-5%" y="-5%" width="110%" height="120%">
      <feDropShadow dx="0" dy="3" stdDeviation="4" flood-color="#000000" flood-opacity="0.5"/>
    </filter>
    <marker id="arrow" markerWidth="8" markerHeight="6" refX="7" refY="3" orient="auto">
      <polygon points="0 0, 8 3, 0 6" fill="#64748b"/>
    </marker>
    <marker id="arrowGreen" markerWidth="8" markerHeight="6" refX="7" refY="3" orient="auto">
      <polygon points="0 0, 8 3, 0 6" fill="#10b981"/>
    </marker>
    <marker id="arrowRed" markerWidth="8" markerHeight="6" refX="7" refY="3" orient="auto">
      <polygon points="0 0, 8 3, 0 6" fill="#ef4444"/>
    </marker>
    <marker id="arrowAmber" markerWidth="8" markerHeight="6" refX="7" refY="3" orient="auto">
      <polygon points="0 0, 8 3, 0 6" fill="#f59e0b"/>
    </marker>
    <marker id="arrowBlue" markerWidth="8" markerHeight="6" refX="7" refY="3" orient="auto">
      <polygon points="0 0, 8 3, 0 6" fill="#0ea5e9"/>
    </marker>
    <marker id="arrowPurple" markerWidth="8" markerHeight="6" refX="7" refY="3" orient="auto">
      <polygon points="0 0, 8 3, 0 6" fill="#8b5cf6"/>
    </marker>
  </defs>

  <rect width="1200" height="1600" fill="url(#bgGrad)"/>

  <!-- TITLE -->
  <text x="600" y="45" text-anchor="middle" font-size="24" font-weight="bold" fill="#f1f5f9" letter-spacing="1">Car Rental Website - Application Flowchart</text>
  <text x="600" y="68" text-anchor="middle" font-size="13" fill="#94a3b8">Complete user and admin flow including Payment Gateway and Review System</text>
  <line x1="60" y1="80" x2="1140" y2="80" stroke="#334155" stroke-width="1.5"/>

  <!-- SWIM LANE BACKGROUNDS -->
  <rect x="60" y="88" width="240" height="1490" rx="6" fill="#1e3a5f" opacity="0.25" stroke="#334155" stroke-width="1"/>
  <rect x="320" y="88" width="240" height="1490" rx="6" fill="#1a3a2a" opacity="0.25" stroke="#334155" stroke-width="1"/>
  <rect x="580" y="88" width="240" height="1490" rx="6" fill="#3a1a2a" opacity="0.20" stroke="#334155" stroke-width="1"/>
  <rect x="840" y="88" width="300" height="1490" rx="6" fill="#2a2a1a" opacity="0.20" stroke="#334155" stroke-width="1"/>

  <text x="180" y="110" text-anchor="middle" font-size="12" font-weight="bold" fill="#7dd3fc">USER / CUSTOMER</text>
  <text x="440" y="110" text-anchor="middle" font-size="12" font-weight="bold" fill="#86efac">BOOKING SYSTEM</text>
  <text x="700" y="110" text-anchor="middle" font-size="12" font-weight="bold" fill="#f9a8d4">PAYMENT (RAZORPAY)</text>
  <text x="990" y="110" text-anchor="middle" font-size="12" font-weight="bold" fill="#fde68a">ADMIN / OWNER</text>
  <line x1="60" y1="118" x2="1140" y2="118" stroke="#334155" stroke-width="1"/>

  <!-- START -->
  <ellipse cx="600" cy="145" rx="80" ry="20" fill="url(#startEnd)" filter="url(#shadow)"/>
  <text x="600" y="149" text-anchor="middle" font-size="12" font-weight="bold" fill="#fff">START</text>
  <line x1="600" y1="165" x2="600" y2="185" stroke="#64748b" stroke-width="1.5" marker-end="url(#arrow)"/>

  <!-- VISIT -->
  <rect x="490" y="185" width="220" height="36" rx="8" fill="url(#processBlue)" filter="url(#shadow)"/>
  <text x="600" y="208" text-anchor="middle" font-size="12" fill="#fff">User Visits Website</text>
  <line x1="600" y1="221" x2="600" y2="241" stroke="#64748b" stroke-width="1.5" marker-end="url(#arrow)"/>

  <!-- AUTH DECISION -->
  <polygon points="600,241 700,271 600,301 500,271" fill="url(#decisionGrad)" filter="url(#shadow)"/>
  <text x="600" y="275" text-anchor="middle" font-size="11" fill="#fff">Logged In?</text>

  <!-- No branch -->
  <line x1="500" y1="271" x2="180" y2="271" stroke="#ef4444" stroke-width="1.5" marker-end="url(#arrowRed)"/>
  <text x="340" y="264" text-anchor="middle" font-size="10" fill="#f87171">No</text>
  <rect x="80" y="251" width="200" height="36" rx="8" fill="url(#processRed)" filter="url(#shadow)"/>
  <text x="180" y="274" text-anchor="middle" font-size="12" fill="#fff">Register / Login Page</text>
  <line x1="180" y1="287" x2="180" y2="321" stroke="#64748b" stroke-width="1.5" marker-end="url(#arrow)"/>
  <rect x="80" y="321" width="200" height="36" rx="8" fill="url(#processBlue)" filter="url(#shadow)"/>
  <text x="180" y="340" text-anchor="middle" font-size="11" fill="#fff">JWT Token Issued</text>
  <text x="180" y="352" text-anchor="middle" font-size="9" fill="#bae6fd">(bcrypt + JWT auth)</text>
  <line x1="280" y1="339" x2="490" y2="339" stroke="#0ea5e9" stroke-width="1.5" marker-end="url(#arrowBlue)"/>

  <!-- Yes branch -->
  <line x1="600" y1="301" x2="600" y2="321" stroke="#10b981" stroke-width="1.5" marker-end="url(#arrowGreen)"/>
  <text x="618" y="314" font-size="10" fill="#86efac">Yes</text>

  <!-- BROWSE -->
  <rect x="490" y="321" width="220" height="36" rx="8" fill="url(#processBlue)" filter="url(#shadow)"/>
  <text x="600" y="344" text-anchor="middle" font-size="12" fill="#fff">Browse / Search Cars</text>
  <line x1="600" y1="357" x2="600" y2="381" stroke="#64748b" stroke-width="1.5" marker-end="url(#arrow)"/>

  <!-- FILTER -->
  <polygon points="600,381 700,406 600,431 500,406" fill="url(#decisionGrad)" filter="url(#shadow)"/>
  <text x="600" y="410" text-anchor="middle" font-size="11" fill="#fff">Apply Filters?</text>
  <line x1="600" y1="431" x2="600" y2="451" stroke="#64748b" stroke-width="1.5" marker-end="url(#arrow)"/>
  <text x="618" y="444" font-size="10" fill="#94a3b8">Yes/No</text>

  <!-- CHECK AVAILABILITY -->
  <rect x="340" y="451" width="520" height="36" rx="8" fill="url(#processBlue)" filter="url(#shadow)"/>
  <text x="600" y="469" text-anchor="middle" font-size="12" fill="#fff">POST /api/bookings/check-availability</text>
  <text x="600" y="481" text-anchor="middle" font-size="9" fill="#bae6fd">(location, pickupDate, returnDate)</text>
  <line x1="600" y1="487" x2="600" y2="511" stroke="#64748b" stroke-width="1.5" marker-end="url(#arrow)"/>

  <!-- AVAILABLE? -->
  <polygon points="600,511 700,536 600,561 500,536" fill="url(#decisionGrad)" filter="url(#shadow)"/>
  <text x="600" y="540" text-anchor="middle" font-size="11" fill="#fff">Cars Available?</text>

  <line x1="500" y1="536" x2="180" y2="536" stroke="#ef4444" stroke-width="1.5" marker-end="url(#arrowRed)"/>
  <text x="340" y="529" text-anchor="middle" font-size="10" fill="#f87171">No</text>
  <rect x="80" y="516" width="200" height="36" rx="8" fill="url(#processRed)" filter="url(#shadow)"/>
  <text x="180" y="539" text-anchor="middle" font-size="12" fill="#fff">Show No Cars Message</text>
  <line x1="180" y1="552" x2="180" y2="574" stroke="#64748b" stroke-width="1.5" marker-end="url(#arrow)"/>
  <line x1="180" y1="574" x2="490" y2="574" stroke="#94a3b8" stroke-width="1.5" stroke-dasharray="5,3" marker-end="url(#arrow)"/>

  <line x1="600" y1="561" x2="600" y2="581" stroke="#10b981" stroke-width="1.5" marker-end="url(#arrowGreen)"/>
  <text x="618" y="574" font-size="10" fill="#86efac">Yes</text>

  <!-- CAR DETAIL -->
  <rect x="490" y="581" width="220" height="36" rx="8" fill="url(#processBlue)" filter="url(#shadow)"/>
  <text x="600" y="599" text-anchor="middle" font-size="12" fill="#fff">View Car Details + Reviews</text>
  <text x="600" y="611" text-anchor="middle" font-size="9" fill="#bae6fd">GET /api/reviews/car/:carId</text>
  <line x1="600" y1="617" x2="600" y2="641" stroke="#64748b" stroke-width="1.5" marker-end="url(#arrow)"/>

  <!-- CREATE BOOKING -->
  <rect x="340" y="641" width="520" height="36" rx="8" fill="url(#processGreen)" filter="url(#shadow)"/>
  <text x="600" y="659" text-anchor="middle" font-size="12" fill="#fff">POST /api/bookings/create</text>
  <text x="600" y="671" text-anchor="middle" font-size="9" fill="#a7f3d0">(car, pickupDate, returnDate; price auto-calculated per day)</text>
  <line x1="600" y1="677" x2="600" y2="701" stroke="#64748b" stroke-width="1.5" marker-end="url(#arrow)"/>

  <!-- BOOKING CREATED -->
  <rect x="490" y="701" width="220" height="46" rx="8" fill="url(#processGreen)" filter="url(#shadow)"/>
  <text x="600" y="719" text-anchor="middle" font-size="12" fill="#fff">Booking Created</text>
  <text x="600" y="733" text-anchor="middle" font-size="9" fill="#a7f3d0">status: pending</text>
  <text x="600" y="743" text-anchor="middle" font-size="9" fill="#a7f3d0">paymentStatus: Pending</text>
  <line x1="600" y1="747" x2="600" y2="767" stroke="#64748b" stroke-width="1.5" marker-end="url(#arrow)"/>

  <!-- PAYMENT DIVIDER -->
  <line x1="60" y1="762" x2="1140" y2="762" stroke="#f59e0b" stroke-width="1" stroke-dasharray="8,4"/>
  <rect x="440" y="755" width="320" height="20" rx="4" fill="#92400e" opacity="0.85"/>
  <text x="600" y="769" text-anchor="middle" font-size="11" font-weight="bold" fill="#fbbf24">PAYMENT GATEWAY (RAZORPAY) - NEW</text>

  <!-- INITIATE PAYMENT -->
  <rect x="490" y="772" width="220" height="36" rx="8" fill="url(#processAmber)" filter="url(#shadow)"/>
  <text x="600" y="790" text-anchor="middle" font-size="12" fill="#fff">User Initiates Payment</text>
  <text x="600" y="802" text-anchor="middle" font-size="9" fill="#fde68a">POST /api/payment/create-order</text>
  <line x1="600" y1="808" x2="700" y2="830" stroke="#f59e0b" stroke-width="1.5" marker-end="url(#arrowAmber)"/>

  <!-- RAZORPAY MODAL -->
  <rect x="580" y="830" width="260" height="50" rx="8" fill="url(#processAmber)" filter="url(#shadow)"/>
  <text x="710" y="850" text-anchor="middle" font-size="12" fill="#fff">Razorpay Payment Modal</text>
  <text x="710" y="864" text-anchor="middle" font-size="10" fill="#fde68a">Card / UPI / NetBanking</text>
  <text x="710" y="876" text-anchor="middle" font-size="9" fill="#fde68a">Amount in INR (paisa)</text>

  <!-- PAYMENT SUCCESS? -->
  <line x1="710" y1="880" x2="710" y2="906" stroke="#64748b" stroke-width="1.5" marker-end="url(#arrow)"/>
  <polygon points="710,906 820,931 710,956 600,931" fill="url(#decisionGrad)" filter="url(#shadow)"/>
  <text x="710" y="935" text-anchor="middle" font-size="11" fill="#fff">Payment Success?</text>

  <line x1="820" y1="931" x2="1060" y2="931" stroke="#ef4444" stroke-width="1.5" marker-end="url(#arrowRed)"/>
  <text x="940" y="924" text-anchor="middle" font-size="10" fill="#f87171">No (Failed)</text>
  <rect x="870" y="913" width="260" height="36" rx="8" fill="url(#processRed)" filter="url(#shadow)"/>
  <text x="1000" y="936" text-anchor="middle" font-size="12" fill="#fff">paymentStatus: Failed</text>

  <line x1="710" y1="956" x2="710" y2="976" stroke="#10b981" stroke-width="1.5" marker-end="url(#arrowGreen)"/>
  <text x="728" y="969" font-size="10" fill="#86efac">Yes</text>

  <!-- VERIFY PAYMENT -->
  <rect x="580" y="976" width="260" height="52" rx="8" fill="url(#processAmber)" filter="url(#shadow)"/>
  <text x="710" y="994" text-anchor="middle" font-size="12" fill="#fff">POST /api/payment/verify-payment</text>
  <text x="710" y="1008" text-anchor="middle" font-size="10" fill="#fde68a">HMAC-SHA256 signature check</text>
  <text x="710" y="1020" text-anchor="middle" font-size="9" fill="#fde68a">(order_id, payment_id, signature)</text>

  <!-- SIGNATURE VALID? -->
  <line x1="710" y1="1028" x2="710" y2="1058" stroke="#64748b" stroke-width="1.5" marker-end="url(#arrow)"/>
  <polygon points="710,1058 820,1083 710,1108 600,1083" fill="url(#decisionGrad)" filter="url(#shadow)"/>
  <text x="710" y="1087" text-anchor="middle" font-size="11" fill="#fff">Signature Valid?</text>

  <line x1="820" y1="1083" x2="1060" y2="1083" stroke="#ef4444" stroke-width="1.5" marker-end="url(#arrowRed)"/>
  <text x="940" y="1076" text-anchor="middle" font-size="10" fill="#f87171">Invalid</text>
  <rect x="870" y="1065" width="260" height="36" rx="8" fill="url(#processRed)" filter="url(#shadow)"/>
  <text x="1000" y="1088" text-anchor="middle" font-size="12" fill="#fff">400 - Invalid Signature</text>

  <line x1="710" y1="1108" x2="710" y2="1128" stroke="#10b981" stroke-width="1.5" marker-end="url(#arrowGreen)"/>
  <text x="728" y="1121" font-size="10" fill="#86efac">Valid</text>

  <!-- BOOKING PAID -->
  <rect x="580" y="1128" width="260" height="50" rx="8" fill="url(#processGreen)" filter="url(#shadow)"/>
  <text x="710" y="1148" text-anchor="middle" font-size="12" fill="#fff">Booking Updated: Paid</text>
  <text x="710" y="1162" text-anchor="middle" font-size="10" fill="#a7f3d0">paymentStatus: Paid</text>
  <text x="710" y="1174" text-anchor="middle" font-size="9" fill="#a7f3d0">transactionId + paymentId stored</text>
  <line x1="600" y1="1153" x2="490" y2="1180" stroke="#64748b" stroke-width="1.5" marker-end="url(#arrow)"/>

  <!-- OWNER DIVIDER -->
  <line x1="60" y1="1178" x2="1140" y2="1178" stroke="#8b5cf6" stroke-width="1" stroke-dasharray="8,4"/>
  <rect x="420" y="1171" width="360" height="20" rx="4" fill="#4c1d95" opacity="0.85"/>
  <text x="600" y="1185" text-anchor="middle" font-size="11" font-weight="bold" fill="#c4b5fd">OWNER DASHBOARD FLOW</text>

  <!-- OWNER VIEWS BOOKINGS -->
  <rect x="860" y="1191" width="260" height="46" rx="8" fill="url(#processPurple)" filter="url(#shadow)"/>
  <text x="990" y="1209" text-anchor="middle" font-size="12" fill="#fff">Owner Views Bookings</text>
  <text x="990" y="1223" text-anchor="middle" font-size="9" fill="#ddd6fe">GET /api/bookings/owner</text>
  <text x="990" y="1233" text-anchor="middle" font-size="9" fill="#ddd6fe">GET /api/owner/dashboard</text>
  <line x1="990" y1="1237" x2="990" y2="1257" stroke="#64748b" stroke-width="1.5" marker-end="url(#arrow)"/>

  <!-- CONFIRM / CANCEL -->
  <rect x="860" y="1257" width="260" height="46" rx="8" fill="url(#processPurple)" filter="url(#shadow)"/>
  <text x="990" y="1275" text-anchor="middle" font-size="12" fill="#fff">Confirm / Cancel Booking</text>
  <text x="990" y="1289" text-anchor="middle" font-size="9" fill="#ddd6fe">POST /api/bookings/change-status</text>
  <text x="990" y="1299" text-anchor="middle" font-size="9" fill="#ddd6fe">status: confirmed | cancelled</text>
  <line x1="860" y1="1280" x2="670" y2="1280" stroke="#8b5cf6" stroke-width="1.5" marker-end="url(#arrowPurple)"/>

  <!-- USER MY BOOKINGS -->
  <rect x="340" y="1186" width="310" height="46" rx="8" fill="url(#processBlue)" filter="url(#shadow)"/>
  <text x="495" y="1204" text-anchor="middle" font-size="12" fill="#fff">User: My Bookings</text>
  <text x="495" y="1218" text-anchor="middle" font-size="9" fill="#bae6fd">GET /api/bookings/user</text>
  <text x="495" y="1228" text-anchor="middle" font-size="9" fill="#bae6fd">(canReview / hasReviewed flags)</text>
  <line x1="495" y1="1232" x2="495" y2="1256" stroke="#64748b" stroke-width="1.5" marker-end="url(#arrow)"/>

  <!-- BOOKING EXPIRED? -->
  <polygon points="495,1256 595,1281 495,1306 395,1281" fill="url(#decisionGrad)" filter="url(#shadow)"/>
  <text x="495" y="1285" text-anchor="middle" font-size="10" fill="#fff">Expired + Unpaid?</text>
  <line x1="595" y1="1281" x2="840" y2="1281" stroke="#ef4444" stroke-width="1.5" marker-end="url(#arrowRed)"/>
  <text x="717" y="1274" text-anchor="middle" font-size="10" fill="#f87171">Yes - Auto-Cancel</text>
  <line x1="495" y1="1306" x2="495" y2="1326" stroke="#10b981" stroke-width="1.5" marker-end="url(#arrowGreen)"/>
  <text x="513" y="1319" font-size="10" fill="#86efac">No</text>

  <!-- REVIEW DIVIDER -->
  <line x1="60" y1="1322" x2="1140" y2="1322" stroke="#10b981" stroke-width="1" stroke-dasharray="8,4"/>
  <rect x="440" y="1315" width="320" height="20" rx="4" fill="#064e3b" opacity="0.85"/>
  <text x="600" y="1329" text-anchor="middle" font-size="11" font-weight="bold" fill="#6ee7b7">REVIEW SYSTEM - NEW</text>

  <!-- COMPLETED BOOKING? -->
  <rect x="340" y="1334" width="310" height="46" rx="8" fill="url(#processGreen)" filter="url(#shadow)" stroke="#10b981" stroke-width="1.5"/>
  <text x="495" y="1352" text-anchor="middle" font-size="12" fill="#fff">Booking Completed Check</text>
  <text x="495" y="1366" text-anchor="middle" font-size="10" fill="#a7f3d0">status=confirmed AND returnDate past</text>
  <text x="495" y="1376" text-anchor="middle" font-size="9" fill="#a7f3d0">AND not yet reviewed this booking</text>
  <line x1="495" y1="1380" x2="495" y2="1400" stroke="#64748b" stroke-width="1.5" marker-end="url(#arrow)"/>

  <!-- CAN REVIEW? -->
  <polygon points="495,1400 595,1425 495,1450 395,1425" fill="url(#decisionGrad)" filter="url(#shadow)"/>
  <text x="495" y="1429" text-anchor="middle" font-size="11" fill="#fff">canReview = true?</text>

  <line x1="395" y1="1425" x2="180" y2="1425" stroke="#ef4444" stroke-width="1.5" marker-end="url(#arrowRed)"/>
  <text x="285" y="1418" text-anchor="middle" font-size="10" fill="#f87171">No</text>
  <rect x="80" y="1405" width="200" height="36" rx="8" fill="url(#processRed)" filter="url(#shadow)"/>
  <text x="180" y="1423" text-anchor="middle" font-size="11" fill="#fff">Review Disabled</text>
  <text x="180" y="1435" text-anchor="middle" font-size="9" fill="#fca5a5">Not eligible or already reviewed</text>

  <line x1="495" y1="1450" x2="495" y2="1470" stroke="#10b981" stroke-width="1.5" marker-end="url(#arrowGreen)"/>
  <text x="513" y="1463" font-size="10" fill="#86efac">Yes</text>

  <!-- SUBMIT REVIEW -->
  <rect x="340" y="1470" width="310" height="50" rx="8" fill="url(#processGreen)" filter="url(#shadow)" stroke="#10b981" stroke-width="1.5"/>
  <text x="495" y="1488" text-anchor="middle" font-size="12" fill="#fff">Submit Review</text>
  <text x="495" y="1502" text-anchor="middle" font-size="10" fill="#a7f3d0">POST /api/reviews</text>
  <text x="495" y="1512" text-anchor="middle" font-size="9" fill="#a7f3d0">(rating 1-5, comment; 1 review per booking)</text>
  <line x1="495" y1="1520" x2="495" y2="1540" stroke="#64748b" stroke-width="1.5" marker-end="url(#arrow)"/>

  <!-- REVIEW VISIBLE -->
  <rect x="340" y="1540" width="310" height="46" rx="8" fill="url(#processTeal)" filter="url(#shadow)"/>
  <text x="495" y="1558" text-anchor="middle" font-size="12" fill="#fff">Review Visible on Car Page</text>
  <text x="495" y="1572" text-anchor="middle" font-size="9" fill="#99f6e4">GET /api/reviews/car/:carId</text>
  <text x="495" y="1582" text-anchor="middle" font-size="9" fill="#99f6e4">GET /api/reviews/summary (avg + count)</text>
  <line x1="600" y1="1563" x2="840" y2="1563" stroke="#14b8a6" stroke-width="1.5" stroke-dasharray="5,3" marker-end="url(#arrow)"/>
  <text x="720" y="1556" text-anchor="middle" font-size="9" fill="#99f6e4">Public review data</text>

  <line x1="495" y1="1586" x2="600" y2="1586" stroke="#64748b" stroke-width="1.5" marker-end="url(#arrow)"/>

  <!-- END -->
  <ellipse cx="600" cy="1596" rx="80" ry="18" fill="url(#startEnd)" filter="url(#shadow)"/>
  <text x="600" y="1600" text-anchor="middle" font-size="12" font-weight="bold" fill="#fff">END</text>

  <!-- LEGEND -->
  <g transform="translate(840,1334)">
    <rect x="0" y="0" width="298" height="218" rx="8" fill="#1e293b" stroke="#334155" stroke-width="1"/>
    <text x="149" y="20" text-anchor="middle" font-size="12" font-weight="bold" fill="#94a3b8">Legend</text>
    <line x1="10" y1="28" x2="288" y2="28" stroke="#334155" stroke-width="0.5"/>
    <rect x="15" y="36" width="14" height="12" rx="3" fill="url(#processBlue)"/>
    <text x="36" y="47" font-size="10" fill="#e2e8f0">Process / Action step</text>
    <polygon points="155,44 183,32 211,44 183,56" fill="url(#decisionGrad)"/>
    <text x="220" y="47" font-size="10" fill="#e2e8f0">Decision</text>
    <rect x="15" y="60" width="14" height="12" rx="3" fill="url(#processGreen)"/>
    <text x="36" y="71" font-size="10" fill="#e2e8f0">Booking / DB write</text>
    <rect x="155" y="60" width="14" height="12" rx="3" fill="url(#processAmber)"/>
    <text x="176" y="71" font-size="10" fill="#e2e8f0">Payment step (NEW)</text>
    <rect x="15" y="84" width="14" height="12" rx="3" fill="url(#processRed)"/>
    <text x="36" y="95" font-size="10" fill="#e2e8f0">Error / denied state</text>
    <rect x="155" y="84" width="14" height="12" rx="3" fill="url(#processPurple)"/>
    <text x="176" y="95" font-size="10" fill="#e2e8f0">Admin / Owner action</text>
    <rect x="15" y="108" width="14" height="12" rx="3" fill="url(#processGreen)" stroke="#10b981" stroke-width="1.5"/>
    <text x="36" y="119" font-size="10" fill="#6ee7b7">Review system (NEW)</text>
    <rect x="155" y="108" width="14" height="12" rx="3" fill="url(#processTeal)"/>
    <text x="176" y="119" font-size="10" fill="#e2e8f0">Review display</text>
    <line x1="15" y1="138" x2="100" y2="138" stroke="#10b981" stroke-width="1.5" marker-end="url(#arrowGreen)"/>
    <text x="108" y="142" font-size="10" fill="#86efac">Success flow</text>
    <line x1="15" y1="158" x2="100" y2="158" stroke="#ef4444" stroke-width="1.5" marker-end="url(#arrowRed)"/>
    <text x="108" y="162" font-size="10" fill="#f87171">Failure / denied path</text>
    <line x1="15" y1="178" x2="100" y2="178" stroke="#f59e0b" stroke-width="1.5" marker-end="url(#arrowAmber)"/>
    <text x="108" y="182" font-size="10" fill="#fbbf24">Razorpay payment path</text>
    <line x1="15" y1="198" x2="100" y2="198" stroke="#8b5cf6" stroke-width="1.5" marker-end="url(#arrowPurple)"/>
    <text x="108" y="202" font-size="10" fill="#c4b5fd">Owner action path</text>
  </g>

</svg>
